<?xml version="1.0" standalone="no"?>
<!DOCTYPE svg PUBLIC "-//W3C//DTD SVG 20010904//EN"
 "http://www.w3.org/TR/2001/REC-SVG-20010904/DTD/svg10.dtd">
<svg version="1.0" xmlns="http://www.w3.org/2000/svg"
 width="500.000000pt" height="500.000000pt" viewBox="0 0 500.000000 500.000000"
 preserveAspectRatio="xMidYMid meet">

<g transform="translate(0.000000,500.000000) scale(0.100000,-0.100000)"
fill="#000000" stroke="none">
<path d="M0 2500 l0 -2500 2500 0 2500 0 0 2500 0 2500 -2500 0 -2500 0 0
-2500z m2812 1520 c608 -129 1071 -585 1214 -1195 26 -111 28 -136 29 -330 0
-216 -10 -294 -61 -464 l-15 -51 -595 0 -595 0 3 53 3 52 335 5 c377 6 380 6
399 77 15 52 15 1014 0 1066 -7 26 -21 44 -42 57 -31 19 -56 20 -705 20 l-674
0 -41 35 c-44 38 -63 42 -92 21 -23 -16 -55 -5 -55 19 0 33 -38 55 -95 55 -57
0 -95 -22 -95 -55 0 -24 -32 -35 -55 -19 -30 22 -48 17 -92 -28 -49 -52 -54
-65 -37 -100 18 -35 10 -54 -27 -62 -73 -14 -62 -184 12 -186 25 0 30 -25 13
-59 -18 -37 -11 -53 45 -104 l41 -37 0 -316 0 -316 34 -34 34 -34 336 0 336 0
0 -32 c0 -18 3 -43 6 -55 l6 -23 -675 0 -676 0 -15 51 c-51 170 -61 248 -61
464 1 194 3 219 29 330 152 650 669 1123 1326 1215 108 15 391 4 502 -20z
m-952 -660 c0 -21 28 -43 78 -61 27 -9 36 -8 51 5 16 15 19 14 44 -12 25 -26
26 -29 11 -44 -19 -19 -14 -47 16 -95 12 -20 28 -33 40 -33 16 0 20 -7 20 -35
0 -28 -4 -35 -19 -35 -27 0 -45 -20 -61 -69 -12 -36 -11 -43 3 -59 16 -17 16
-20 -6 -40 -20 -19 -27 -20 -54 -10 -45 17 -112 -13 -120 -54 -5 -24 -10 -28
-39 -28 -28 0 -33 4 -36 27 -5 47 -93 80 -128 48 -15 -13 -19 -12 -43 13 -27
28 -27 29 -8 46 19 17 19 20 4 60 -22 55 -31 66 -59 66 -21 0 -24 5 -24 34 0
29 4 34 28 39 45 9 81 104 50 135 -9 9 -6 17 12 37 21 22 25 23 40 10 21 -19
29 -19 84 5 37 16 46 24 46 45 0 22 4 25 35 25 28 0 35 -4 35 -20z m1606 -124
c21 -29 21 -1043 0 -1072 -14 -19 -36 -19 -875 -22 l-862 -2 -24 24 -25 25 0
310 c0 175 4 312 9 315 18 11 39 -6 45 -35 4 -22 14 -33 36 -40 l30 -11 0
-194 0 -195 26 -24 27 -25 728 0 728 0 28 24 28 24 0 391 0 390 -23 23 -23 23
-600 5 c-572 5 -601 6 -614 24 -12 16 -12 22 2 42 l16 24 664 -2 c645 -3 665
-4 679 -22z m-173 -128 c16 -12 17 -44 15 -383 l-3 -370 -719 -3 c-569 -2
-721 0 -728 10 -4 7 -8 92 -8 190 l0 176 30 11 c22 7 32 18 36 40 8 37 27 45
62 27 35 -17 48 -12 100 37 46 45 50 61 27 94 -14 21 -14 24 5 43 11 11 27 20
35 20 21 0 35 32 35 79 l0 41 548 0 c423 0 552 -3 565 -12z m-560 -1026 c3 -4
3 -28 0 -55 l-6 -47 -148 0 -149 0 0 55 0 55 149 0 c83 0 152 -3 154 -8z
m-858 -312 c0 -10 -13 -16 -42 -18 -40 -3 -43 -5 -43 -33 0 -26 3 -29 33 -29
38 0 48 -6 40 -26 -3 -8 -19 -14 -39 -14 -32 0 -34 -2 -34 -34 0 -34 1 -35 43
-38 29 -2 42 -8 42 -18 0 -12 -15 -16 -67 -18 l-68 -3 0 126 0 126 68 -3 c52
-2 67 -6 67 -18z m180 -5 c30 -30 32 -64 4 -99 l-21 -26 31 -42 c38 -51 38
-58 6 -58 -19 0 -34 12 -57 45 -18 25 -35 45 -40 45 -4 0 -8 -20 -8 -45 0 -41
-2 -45 -25 -45 l-25 0 0 125 0 125 55 0 c46 0 60 -4 80 -25z m159 -45 c27 -38
49 -70 51 -70 2 0 23 32 46 70 28 44 50 70 61 70 16 0 18 -12 18 -115 0 -63 0
-118 0 -122 0 -5 -10 -8 -22 -8 -21 0 -23 6 -28 60 l-5 60 -30 -47 c-16 -27
-35 -48 -41 -48 -6 0 -28 23 -48 52 l-36 52 0 -67 c0 -65 -1 -67 -25 -67 l-25
0 0 125 c0 114 2 125 18 125 12 0 37 -26 66 -70z m376 50 c0 -17 -7 -20 -40
-20 -38 0 -40 -2 -40 -29 0 -26 4 -30 33 -33 20 -2 32 -8 32 -18 0 -10 -12
-16 -32 -18 -30 -3 -33 -6 -33 -38 0 -33 1 -34 40 -34 34 0 40 -3 40 -20 0
-19 -5 -21 -67 -18 l-68 3 -3 109 c-1 61 0 116 2 123 4 9 26 13 71 13 58 0 65
-2 65 -20z m100 -25 l5 -40 29 43 c23 33 35 42 57 42 16 0 29 -3 29 -8 0 -4
-18 -29 -40 -56 -22 -26 -40 -51 -40 -55 0 -4 18 -32 40 -61 22 -29 40 -57 40
-62 0 -4 -11 -8 -25 -8 -17 0 -34 13 -59 46 l-35 45 -3 -43 c-3 -38 -6 -43
-28 -43 -25 0 -25 0 -28 109 -1 61 0 116 3 124 3 7 15 12 27 10 18 -2 24 -11
28 -43z m308 29 c96 -67 46 -234 -70 -234 -32 0 -47 7 -74 34 -29 29 -34 41
-34 80 0 53 19 97 52 120 29 20 97 20 126 0z m128 -44 c12 -30 25 -64 29 -75
4 -15 13 -2 34 55 24 64 32 75 52 75 29 0 29 -1 -23 -138 -55 -144 -65 -143
-124 13 -24 63 -44 119 -44 123 0 5 12 7 27 5 22 -2 31 -13 49 -58z m398 -418
c-168 -157 -450 -296 -718 -354 -147 -32 -455 -32 -602 0 -268 58 -550 197
-718 354 l-51 47 1070 0 1070 0 -51 -47z"/>
<path d="M1777 3236 c-73 -26 -107 -76 -107 -154 0 -179 261 -210 309 -36 32
116 -89 230 -202 190z m120 -81 c32 -32 35 -40 30 -76 -14 -106 -144 -131
-193 -37 -33 63 20 148 93 148 27 0 43 -8 70 -35z"/>
<path d="M2792 2937 c-6 -7 -43 -100 -82 -207 -64 -175 -70 -195 -56 -209 14
-13 18 -14 31 -1 14 15 155 382 155 406 0 6 -7 15 -16 18 -21 8 -20 8 -32 -7z"/>
<path d="M2430 2835 l-105 -105 104 -104 c88 -88 107 -103 123 -95 10 5 18 15
18 21 0 6 -37 48 -82 94 l-82 84 82 84 c45 46 82 88 82 93 0 10 -21 33 -30 33
-3 0 -52 -47 -110 -105z"/>
<path d="M2922 2928 c-7 -7 -12 -16 -12 -21 0 -5 37 -47 82 -93 l82 -84 -82
-84 c-57 -58 -80 -89 -76 -100 12 -32 41 -14 138 83 84 84 97 101 88 117 -13
25 -187 194 -199 194 -5 0 -14 -5 -21 -12z"/>
<path d="M1970 1711 c0 -28 4 -41 14 -41 40 0 48 73 9 78 -21 3 -23 -1 -23
-37z"/>
<path d="M2898 1733 c-22 -26 -30 -59 -23 -93 8 -39 30 -60 60 -60 32 0 55 36
55 85 0 72 -54 111 -92 68z"/>
</g>
</svg>
