<?xml version="1.0" standalone="no"?>
<!DOCTYPE svg PUBLIC "-//W3C//DTD SVG 20010904//EN"
 "http://www.w3.org/TR/2001/REC-SVG-20010904/DTD/svg10.dtd">
<svg version="1.0" xmlns="http://www.w3.org/2000/svg"
 width="240.000000pt" height="303.000000pt" viewBox="0 0 240.000000 303.000000"
 preserveAspectRatio="xMidYMid meet">

<g transform="translate(0.000000,303.000000) scale(0.100000,-0.100000)"
fill="#000000" stroke="none">
<path d="M416 2908 c-9 -12 -16 -28 -16 -34 0 -17 -29 -25 -50 -14 -35 19 -65
11 -102 -27 -44 -48 -50 -64 -33 -97 18 -34 11 -52 -25 -65 -39 -13 -53 -44
-48 -102 6 -56 21 -79 53 -79 30 0 38 -25 20 -61 -14 -26 -14 -32 0 -59 8 -16
31 -42 50 -57 l35 -28 0 -312 0 -313 29 -32 29 -33 339 -5 338 -5 3 -95 c4
-134 3 -136 -62 -144 -66 -9 -115 -39 -138 -86 -24 -47 -25 -181 -2 -204 13
-14 64 -16 402 -16 213 0 397 3 410 6 21 6 22 11 22 96 0 99 -11 130 -60 171
-22 19 -47 28 -89 33 l-59 6 -7 64 c-3 35 -3 88 0 119 l7 55 324 0 c344 0 359
2 391 49 17 24 18 68 21 521 2 272 0 514 -3 538 -4 27 -17 55 -35 75 l-28 32
-685 3 -684 3 -28 29 c-30 31 -62 38 -95 20 -24 -13 -50 -3 -50 20 0 33 -33
50 -98 50 -52 0 -63 -3 -76 -22z m116 -60 c2 -16 18 -30 51 -46 46 -22 50 -22
74 -7 24 16 26 16 46 -4 19 -18 19 -23 7 -46 -11 -21 -12 -32 -1 -63 18 -50
29 -62 57 -62 21 0 24 -5 24 -34 0 -30 -4 -35 -29 -41 -22 -5 -32 -16 -45 -48
-19 -51 -20 -69 -4 -85 9 -9 6 -17 -12 -37 -22 -23 -25 -24 -42 -8 -33 30
-128 -12 -128 -58 0 -15 -7 -19 -35 -19 -31 0 -35 3 -35 25 0 19 -10 29 -40
45 -47 24 -68 25 -90 5 -15 -13 -19 -12 -39 9 -21 22 -22 26 -8 48 14 21 14
28 -2 68 -13 36 -23 47 -49 55 -28 8 -32 14 -32 42 0 30 3 33 29 33 24 0 31 7
49 48 19 43 19 49 6 70 -15 22 -14 26 6 47 21 22 24 23 45 9 21 -14 28 -13 72
8 33 16 49 30 51 46 3 18 10 22 37 22 27 0 34 -4 37 -22z m1588 -118 c19 -19
20 -33 20 -528 0 -443 -2 -510 -16 -530 l-15 -22 -863 0 c-657 0 -865 3 -874
12 -9 9 -12 97 -12 334 0 317 0 322 20 317 11 -3 20 -13 20 -22 0 -26 29 -61
51 -61 18 0 19 -9 19 -195 0 -195 0 -196 25 -220 l24 -25 725 0 725 0 28 24
28 24 3 364 c2 243 0 375 -8 400 -20 70 -1 68 -637 68 -312 0 -578 3 -590 6
-25 7 -34 31 -19 57 10 16 53 17 668 17 645 0 658 0 678 -20z m-161 -134 c8
-9 11 -117 9 -377 l-3 -364 -714 -3 c-565 -2 -716 0 -723 10 -4 7 -8 92 -8
189 l0 177 26 6 c16 4 30 19 40 41 14 34 45 47 59 25 12 -20 55 -9 91 22 48
42 59 73 39 104 -19 29 -5 64 25 64 27 0 50 38 50 82 l0 38 549 0 c452 0 551
-2 560 -14z m-562 -1126 l0 -120 -154 0 -155 0 6 23 c3 12 6 66 6 120 l0 97
148 0 149 0 0 -120z m158 -194 c44 -19 55 -42 55 -115 l0 -61 -365 0 -365 0 0
55 c0 68 14 100 54 119 44 22 569 23 621 2z"/>
<path d="M420 2722 c-105 -58 -109 -200 -7 -276 36 -27 119 -28 162 -2 98 57
105 202 14 267 -44 31 -123 36 -169 11z m124 -53 c33 -15 59 -71 51 -109 -4
-16 -20 -41 -37 -55 -41 -34 -88 -33 -129 3 -26 24 -32 36 -32 72 0 76 75 121
147 89z"/>
<path d="M1461 2441 c-14 -9 -151 -373 -151 -402 0 -22 26 -37 41 -22 13 13
149 381 149 404 0 19 -21 31 -39 20z"/>
<path d="M1093 2338 c-51 -52 -93 -100 -93 -108 0 -25 196 -214 214 -207 31
12 15 44 -64 122 l-80 80 81 81 c82 83 97 116 54 122 -14 2 -48 -26 -112 -90z"/>
<path d="M1576 2414 c-4 -11 19 -42 79 -103 l85 -87 -81 -79 c-77 -78 -94
-112 -61 -123 16 -5 212 186 212 206 0 8 -41 57 -92 108 -92 94 -128 114 -142
78z"/>
<path d="M167 794 c-4 -4 -7 -60 -7 -125 0 -137 -4 -132 110 -127 65 3 65 3
65 33 0 30 -1 30 -57 33 -43 2 -58 7 -58 17 0 11 12 15 44 15 26 0 48 6 56 15
20 25 -5 45 -56 45 -32 0 -44 4 -44 15 0 10 15 15 58 17 56 3 57 3 57 33 l0
30 -80 3 c-45 1 -84 0 -88 -4z"/>
<path d="M452 788 c-18 -18 -16 -209 2 -234 12 -15 18 -17 33 -8 15 9 19 27
21 98 l3 87 32 -3 c37 -3 45 -31 10 -36 -33 -5 -35 -28 -9 -81 29 -56 48 -74
70 -65 21 8 20 38 -1 74 -15 27 -15 29 5 55 12 15 22 34 22 41 0 26 -23 62
-47 73 -32 15 -126 14 -141 -1z"/>
<path d="M740 781 c-16 -31 -13 -203 4 -227 12 -15 18 -17 33 -8 13 8 19 28
23 74 5 62 5 62 24 41 11 -11 24 -21 31 -21 7 0 20 10 31 21 19 21 19 21 24
-41 4 -46 10 -66 23 -74 15 -9 21 -7 33 8 19 26 20 204 1 230 -19 25 -49 14
-78 -29 -22 -32 -49 -47 -49 -27 0 15 -59 72 -74 72 -8 0 -20 -9 -26 -19z"/>
<path d="M1084 787 c-2 -7 -3 -65 -2 -128 l3 -114 65 -3 c92 -4 112 2 108 36
-3 25 -6 27 -60 30 -42 2 -58 7 -58 17 0 10 15 15 48 17 43 3 47 5 47 28 0 23
-4 25 -47 28 -34 2 -48 7 -48 18 0 10 13 14 48 14 58 0 75 10 70 41 -3 23 -7
24 -86 27 -62 2 -84 -1 -88 -11z"/>
<path d="M1371 786 c-8 -9 -11 -51 -9 -121 3 -89 6 -110 20 -119 24 -14 39 3
47 51 l6 38 30 -42 c34 -48 52 -58 71 -42 21 17 17 32 -20 81 l-35 45 29 28
c36 35 46 61 30 80 -21 25 -38 17 -72 -32 l-33 -48 -3 35 c-6 55 -35 77 -61
46z"/>
<path d="M1703 785 c-96 -42 -95 -183 2 -229 49 -23 96 -14 141 27 65 59 51
157 -27 199 -40 21 -72 22 -116 3z m99 -72 c38 -34 11 -103 -40 -103 -53 0
-83 68 -46 104 20 21 63 20 86 -1z"/>
<path d="M1970 785 c-11 -14 -7 -31 26 -112 43 -108 62 -137 84 -128 9 3 37
55 64 116 46 103 48 111 33 127 -25 25 -45 7 -74 -66 -14 -34 -29 -62 -33 -62
-4 0 -18 30 -31 67 -25 70 -45 87 -69 58z"/>
<path d="M135 240 c-3 -5 -3 -14 0 -20 4 -7 357 -10 1025 -10 1008 0 1065 2
1019 31 -20 13 -2036 12 -2044 -1z"/>
</g>
</svg>
