<?xml version="1.0" standalone="no"?>
<!DOCTYPE svg PUBLIC "-//W3C//DTD SVG 20010904//EN"
 "http://www.w3.org/TR/2001/REC-SVG-20010904/DTD/svg10.dtd">
<svg version="1.0" xmlns="http://www.w3.org/2000/svg"
 width="500.000000pt" height="500.000000pt" viewBox="0 0 500.000000 500.000000"
 preserveAspectRatio="xMidYMid meet">

<g transform="translate(0.000000,500.000000) scale(0.100000,-0.100000)"
fill="#000000" stroke="none">
<path d="M900 2890 c-8 -15 -17 -19 -31 -15 -29 9 -62 -22 -54 -52 4 -16 -1
-25 -15 -33 -26 -14 -26 -56 0 -72 13 -8 18 -19 14 -33 -3 -13 2 -28 15 -39
19 -18 21 -31 21 -161 0 -96 4 -145 12 -153 8 -8 58 -12 159 -12 141 0 148 -1
154 -21 4 -11 4 -36 0 -55 -5 -28 -10 -34 -30 -34 -40 0 -65 -33 -65 -85 l0
-45 185 0 185 0 0 45 c0 52 -25 85 -64 85 -26 0 -35 26 -27 83 l3 27 147 0
c101 0 151 4 159 12 17 17 17 489 0 506 -9 9 -92 12 -314 12 -261 0 -303 2
-315 16 -7 9 -21 13 -34 10 -14 -4 -25 1 -33 14 -16 26 -58 26 -72 0z m50 -19
c0 -11 35 -24 65 -25 12 -1 19 -7 17 -15 -6 -26 8 -61 23 -61 8 0 15 -7 15
-15 0 -8 -6 -15 -13 -15 -18 0 -40 -47 -26 -56 6 -4 6 -11 -2 -20 -6 -7 -16
-11 -21 -8 -16 10 -58 -6 -58 -21 0 -8 -7 -15 -15 -15 -8 0 -15 7 -15 15 0 19
-41 36 -56 24 -14 -11 -36 11 -25 25 10 13 -4 56 -19 56 -5 0 -10 7 -10 15 0
8 5 15 10 15 16 0 29 43 18 57 -10 13 8 27 28 22 15 -5 54 12 54 22 0 5 7 9
15 9 8 0 15 -4 15 -9z m698 -53 c17 -17 17 -449 0 -466 -17 -17 -749 -17 -766
0 -14 14 -17 288 -3 288 23 0 41 -52 41 -120 0 -119 -30 -110 343 -110 238 0
326 3 335 12 17 17 17 339 0 356 -9 9 -82 12 -267 12 -247 0 -291 5 -277 29
10 16 578 15 594 -1z m-68 -218 l0 -170 -315 0 -315 0 0 83 c1 65 4 87 19 105
12 14 25 20 35 16 25 -10 58 25 51 53 -4 16 1 25 15 33 11 6 20 20 20 30 0 19
8 20 245 20 l245 0 0 -170z m-250 -335 l0 -55 -65 0 -65 0 0 55 0 55 65 0 65
0 0 -55z m78 -91 c16 -11 22 -24 20 -42 l-3 -27 -160 0 c-146 0 -160 2 -163
18 -2 10 4 29 12 42 16 24 20 25 144 25 101 0 132 -3 150 -16z"/>
<path d="M887 2802 c-22 -25 -21 -75 1 -95 25 -22 75 -21 95 1 22 25 21 75 -1
95 -25 22 -75 21 -95 -1z m74 -12 c23 -13 25 -52 4 -70 -20 -17 -62 -5 -70 20
-8 24 11 60 31 60 8 0 24 -5 35 -10z"/>
<path d="M1199 2644 l-43 -44 46 -47 c26 -26 51 -44 54 -40 4 4 -10 25 -31 47
l-39 40 38 39 c21 21 34 41 29 44 -6 4 -29 -14 -54 -39z"/>
<path d="M1323 2600 c-22 -60 -28 -90 -20 -90 7 0 26 37 42 82 17 45 32 86 33
90 2 4 -2 8 -10 8 -8 0 -26 -37 -45 -90z"/>
<path d="M1410 2683 c0 -4 17 -24 37 -45 l37 -38 -39 -40 c-21 -22 -35 -43
-31 -47 3 -4 28 14 54 40 l46 47 -44 45 c-42 42 -60 54 -60 38z"/>
<path d="M1850 2490 l0 -130 120 0 120 0 0 30 0 30 -85 0 c-78 0 -85 2 -85 20
0 17 8 19 68 22 65 3 67 4 70 31 l3 27 -70 0 c-64 0 -71 2 -71 20 0 18 7 20
85 20 l85 0 0 30 0 30 -120 0 -120 0 0 -130z"/>
<path d="M2163 2613 c-10 -3 -13 -39 -13 -129 l0 -124 30 0 c28 0 30 2 30 40
l0 40 44 0 c40 0 46 -3 70 -40 21 -32 32 -40 56 -40 35 0 38 14 10 50 -23 30
-25 46 -6 53 18 7 31 67 22 102 -10 39 -54 55 -148 54 -46 0 -89 -3 -95 -6z
m175 -77 c5 -26 -15 -36 -71 -36 -49 0 -65 14 -53 46 4 12 19 14 63 12 47 -2
58 -6 61 -22z"/>
<path d="M2470 2490 l0 -130 35 0 34 0 3 77 3 78 38 -53 c21 -30 43 -52 50
-50 7 3 28 25 47 51 l35 47 5 -72 5 -73 33 -3 32 -3 0 130 0 131 -34 0 c-30 0
-38 -6 -76 -65 -23 -36 -44 -65 -46 -65 -1 0 -24 29 -49 65 -42 58 -50 65 -81
65 l-34 0 0 -130z"/>
<path d="M2850 2490 l0 -130 125 0 125 0 0 30 0 30 -90 0 c-83 0 -90 1 -90 20
0 18 7 20 70 20 l70 0 0 30 0 30 -70 0 c-63 0 -70 2 -70 20 0 19 7 20 90 20
l90 0 0 30 0 30 -125 0 -125 0 0 -130z"/>
<path d="M3150 2489 l0 -130 33 3 c31 3 32 5 35 51 3 42 6 47 27 47 16 0 37
-16 65 -50 33 -39 48 -50 71 -50 16 0 29 5 29 11 0 7 -21 36 -46 66 -51 59
-52 51 13 126 41 47 41 57 1 57 -27 -1 -40 -10 -73 -50 -26 -33 -48 -50 -62
-50 -21 0 -23 5 -23 50 l0 50 -35 0 -35 0 0 -131z"/>
<path d="M3500 2602 c-67 -33 -78 -157 -19 -206 57 -48 181 -46 231 4 24 25
28 36 28 87 0 68 -17 99 -66 119 -46 19 -132 18 -174 -4z m164 -64 c40 -57 5
-118 -67 -118 -60 0 -87 22 -87 70 0 54 20 70 85 70 44 0 57 -4 69 -22z"/>
<path d="M3770 2616 c0 -2 27 -60 60 -130 58 -124 60 -126 92 -126 33 0 34 2
91 123 31 67 57 125 57 130 0 4 -13 7 -30 7 -26 0 -32 -6 -50 -47 -11 -27 -31
-70 -44 -98 l-24 -50 -46 98 c-43 91 -47 97 -76 97 -16 0 -30 -2 -30 -4z"/>
<path d="M1843 2244 c-3 -8 -1 -20 4 -25 5 -5 463 -8 1184 -7 1166 3 1174 3
1174 23 0 20 -8 20 -1178 23 -1063 2 -1178 1 -1184 -14z"/>
</g>
</svg>
